<svg xmlns="http://www.w3.org/2000/svg" width="736" height="1133" viewBox="0 0 736 1133">
<g>
<path d="M 374.68 648.19 C372.48,650.28 370.38,652.00 370.03,652.00 C369.67,652.00 368.35,650.62 367.11,648.93 C364.94,646.00 358.15,642.32 353.18,641.38 C351.91,641.13 347.73,637.91 343.90,634.22 C334.54,625.20 330.31,621.51 325.27,617.98 C322.94,616.35 319.95,613.32 318.64,611.26 C317.32,609.19 315.02,606.38 313.52,605.00 C312.03,603.62 309.98,600.92 308.97,599.00 C307.95,597.08 305.07,593.03 302.56,590.01 C300.05,586.99 298.00,584.01 298.00,583.39 C298.00,582.77 297.14,581.17 296.08,579.83 C295.03,578.49 293.84,575.62 293.45,573.45 C293.05,571.28 292.13,568.31 291.39,566.85 C290.65,565.39 289.80,562.24 289.50,559.85 C289.20,557.46 288.52,555.35 287.98,555.17 C286.57,554.69 286.78,549.89 288.42,545.24 C289.35,542.58 289.50,540.90 288.83,540.23 C288.17,539.57 288.37,537.69 289.40,534.63 C291.77,527.65 293.06,525.96 295.16,527.09 C296.59,527.85 297.24,527.43 298.55,524.91 C299.44,523.19 299.91,520.76 299.59,519.51 C298.84,516.53 300.43,515.35 306.37,514.46 C309.81,513.95 312.03,512.90 313.96,510.88 C315.54,509.24 318.13,507.82 320.10,507.53 C321.97,507.26 325.08,506.65 327.00,506.18 C330.22,505.40 336.17,505.87 345.00,507.60 C346.92,507.97 349.57,509.12 350.88,510.14 C352.20,511.16 354.07,512.00 355.05,512.00 C356.02,512.00 359.50,514.92 362.78,518.50 C366.05,522.08 368.95,525.00 369.21,525.00 C369.47,525.00 372.34,522.52 375.59,519.49 C378.84,516.45 382.62,513.39 384.00,512.67 C385.38,511.95 387.40,510.89 388.50,510.30 C390.52,509.23 396.14,507.61 403.50,505.99 C405.70,505.50 408.78,504.80 410.35,504.42 C414.04,503.53 426.83,507.56 429.35,510.41 C430.37,511.56 432.62,512.99 434.35,513.59 C436.08,514.19 437.66,515.50 437.85,516.50 C438.05,517.50 440.41,521.35 443.10,525.05 C445.80,528.75 448.00,532.22 448.00,532.77 C448.00,533.31 448.62,534.27 449.38,534.90 C451.22,536.43 451.11,559.96 449.25,562.20 C448.50,563.10 448.24,564.93 448.59,566.68 C449.07,569.10 448.72,569.95 446.72,571.26 C444.95,572.43 444.34,573.62 444.55,575.53 C444.94,579.05 441.77,586.18 439.11,587.76 C437.95,588.45 437.00,589.97 437.00,591.14 C437.00,592.40 434.78,595.39 431.50,598.54 C428.48,601.45 426.00,604.37 426.00,605.04 C426.00,605.71 423.41,608.87 420.25,612.06 C417.09,615.26 413.83,618.58 413.00,619.45 C409.44,623.21 404.09,627.00 401.88,627.32 C400.51,627.53 398.94,628.81 398.19,630.35 C396.73,633.33 388.58,639.70 382.60,642.53 C380.45,643.54 376.89,646.09 374.68,648.19 Z" fill="rgb(52,9,16)"/>
<path d="M 377.50 665.04 C374.20,667.21 370.97,668.99 370.33,668.99 C367.08,669.02 343.74,654.55 338.15,649.03 C336.69,647.60 333.92,645.46 332.00,644.28 C330.08,643.10 324.04,637.83 318.58,632.57 C313.13,627.30 308.33,623.00 307.92,623.00 C307.24,623.00 299.78,614.28 289.54,601.53 C287.32,598.76 284.42,594.25 283.09,591.50 C281.76,588.75 279.29,584.72 277.59,582.54 C274.29,578.31 273.29,575.98 269.45,563.57 C267.41,556.96 267.01,553.65 267.04,543.57 C267.07,535.27 267.56,530.25 268.61,527.50 C269.45,525.30 270.49,522.15 270.91,520.50 C273.26,511.44 285.25,496.93 293.28,493.44 C295.60,492.43 298.83,490.70 300.46,489.59 C304.86,486.58 323.21,484.89 332.00,486.68 C335.58,487.40 339.72,488.90 341.21,490.00 C342.70,491.10 344.84,492.00 345.97,492.00 C348.75,492.00 361.15,501.14 365.04,506.05 C366.76,508.22 368.87,510.00 369.72,510.00 C370.58,510.00 373.83,507.36 376.95,504.13 C388.92,491.75 398.00,487.78 420.00,485.30 C424.39,484.81 438.20,488.07 440.45,490.13 C440.97,490.61 442.27,491.00 443.33,491.00 C444.39,491.00 447.11,492.58 449.38,494.51 C459.44,503.08 463.00,506.58 463.00,507.93 C463.00,508.72 463.95,510.39 465.12,511.63 C466.43,513.02 468.31,518.06 470.03,524.77 C472.34,533.81 472.76,537.34 472.52,545.58 C472.35,551.04 471.77,557.16 471.23,559.20 C470.68,561.23 470.47,563.13 470.75,563.42 C471.04,563.70 468.74,569.08 465.64,575.35 C462.54,581.63 460.00,587.26 460.00,587.85 C460.00,588.44 458.73,590.41 457.17,592.22 C455.62,594.02 452.96,597.53 451.26,600.00 C449.56,602.47 446.67,606.15 444.84,608.17 C443.00,610.18 439.93,613.90 438.00,616.42 C436.08,618.94 434.21,621.00 433.84,621.00 C433.46,621.00 429.35,624.83 424.70,629.50 C420.05,634.17 415.62,638.01 414.87,638.01 C414.12,638.02 411.16,640.42 408.30,643.35 C405.44,646.27 400.49,650.12 397.30,651.89 C394.11,653.66 389.70,656.46 387.50,658.11 C385.30,659.76 380.80,662.88 377.50,665.04 ZM 374.68 648.19 C376.89,646.09 380.45,643.54 382.60,642.53 C388.58,639.70 396.73,633.33 398.19,630.35 C398.94,628.81 400.51,627.53 401.88,627.32 C404.09,627.00 409.44,623.21 413.00,619.45 C413.83,618.58 417.09,615.26 420.25,612.06 C423.41,608.87 426.00,605.71 426.00,605.04 C426.00,604.37 428.48,601.45 431.50,598.54 C434.78,595.39 437.00,592.40 437.00,591.14 C437.00,589.97 437.95,588.45 439.11,587.76 C441.77,586.18 444.94,579.05 444.55,575.53 C444.34,573.62 444.95,572.43 446.72,571.26 C448.72,569.95 449.07,569.10 448.59,566.68 C448.24,564.93 448.50,563.10 449.25,562.20 C451.11,559.96 451.22,536.43 449.38,534.90 C448.62,534.27 448.00,533.31 448.00,532.77 C448.00,532.22 445.80,528.75 443.10,525.05 C440.41,521.35 438.05,517.50 437.85,516.50 C437.66,515.50 436.08,514.19 434.35,513.59 C432.62,512.99 430.37,511.56 429.35,510.41 C426.83,507.56 414.04,503.53 410.35,504.42 C408.78,504.80 405.70,505.50 403.50,505.99 C396.14,507.61 390.52,509.23 388.50,510.30 C387.40,510.89 385.38,511.95 384.00,512.67 C382.62,513.39 378.84,516.45 375.59,519.49 C372.34,522.52 369.47,525.00 369.21,525.00 C368.95,525.00 366.05,522.08 362.78,518.50 C359.50,514.92 356.02,512.00 355.05,512.00 C354.07,512.00 352.20,511.16 350.88,510.14 C349.57,509.12 346.92,507.97 345.00,507.60 C336.17,505.87 330.22,505.40 327.00,506.18 C325.08,506.65 321.97,507.26 320.10,507.53 C318.13,507.82 315.54,509.24 313.96,510.88 C312.03,512.90 309.81,513.95 306.37,514.46 C300.43,515.35 298.84,516.53 299.59,519.51 C299.91,520.76 299.44,523.19 298.55,524.91 C297.24,527.43 296.59,527.85 295.16,527.09 C293.06,525.96 291.77,527.65 289.40,534.63 C288.37,537.69 288.17,539.57 288.83,540.23 C289.50,540.90 289.35,542.58 288.42,545.24 C286.78,549.89 286.57,554.69 287.98,555.17 C288.52,555.35 289.20,557.46 289.50,559.85 C289.80,562.24 290.65,565.39 291.39,566.85 C292.13,568.31 293.05,571.28 293.45,573.45 C293.84,575.62 295.03,578.49 296.08,579.83 C297.14,581.17 298.00,582.77 298.00,583.39 C298.00,584.01 300.05,586.99 302.56,590.01 C305.07,593.03 307.95,597.08 308.97,599.00 C309.98,600.92 312.03,603.62 313.52,605.00 C315.02,606.38 317.32,609.19 318.64,611.26 C319.95,613.32 322.94,616.35 325.27,617.98 C330.31,621.51 334.54,625.20 343.90,634.22 C347.73,637.91 351.91,641.13 353.18,641.38 C358.15,642.32 364.94,646.00 367.11,648.93 C368.35,650.62 369.67,652.00 370.03,652.00 C370.38,652.00 372.48,650.28 374.68,648.19 Z" fill="rgb(77,22,29)"/>
<path d="M 374.73 680.10 C368.81,682.26 367.38,682.42 366.49,680.98 C366.15,680.43 364.29,679.31 362.36,678.51 C360.44,677.70 354.36,674.00 348.86,670.27 C343.36,666.55 337.17,662.37 335.11,660.99 C333.05,659.61 328.06,655.56 324.02,651.99 C319.99,648.42 313.94,643.07 310.59,640.11 C307.24,637.15 302.73,632.87 300.57,630.61 C290.36,619.93 282.55,611.19 280.38,608.00 C279.06,606.08 275.31,600.67 272.03,596.00 C266.95,588.76 262.83,581.34 258.96,572.50 C258.48,571.40 257.43,568.18 256.62,565.34 C255.82,562.50 254.48,559.12 253.66,557.84 C250.78,553.35 251.85,521.30 255.00,517.50 C255.72,516.63 256.48,514.03 256.70,511.71 C257.11,507.38 261.77,499.33 267.22,493.56 C268.75,491.94 270.00,490.30 270.00,489.91 C270.00,489.51 272.59,487.75 275.75,485.98 C278.91,484.22 282.40,481.97 283.50,480.98 C292.63,472.79 320.95,469.41 333.40,475.02 C335.66,476.04 339.67,477.69 342.32,478.68 C348.14,480.88 363.94,493.55 366.98,498.46 C368.18,500.41 369.52,502.00 369.97,502.00 C370.41,502.00 371.57,500.77 372.56,499.27 C373.54,497.77 377.53,493.35 381.42,489.46 C387.82,483.04 389.41,482.03 398.00,478.82 C413.94,472.88 414.92,472.67 427.04,472.70 C435.72,472.72 439.35,473.13 441.74,474.36 C443.48,475.26 445.87,476.00 447.05,476.00 C448.23,476.00 450.39,476.84 451.85,477.86 C453.31,478.89 456.52,480.62 459.00,481.71 C464.74,484.24 478.80,498.76 479.66,503.04 C479.99,504.69 480.66,506.29 481.14,506.59 C483.10,507.80 484.96,514.53 486.01,524.25 C486.61,529.89 487.57,536.60 488.13,539.18 C488.84,542.44 488.82,544.46 488.07,545.86 C487.48,546.97 486.99,549.36 486.98,551.18 C486.97,553.01 485.84,557.65 484.48,561.50 C483.12,565.35 482.01,569.89 482.00,571.60 C482.00,573.42 481.18,575.44 480.00,576.50 C478.90,577.50 477.99,578.80 477.98,579.40 C477.97,580.01 475.50,584.07 472.48,588.43 C469.47,592.80 467.00,596.99 467.00,597.75 C467.00,599.09 463.69,603.23 452.10,616.37 C438.86,631.38 431.32,639.27 429.00,640.51 C427.62,641.25 423.71,644.47 420.29,647.67 C416.88,650.88 412.83,654.48 411.29,655.67 C409.76,656.86 407.15,658.93 405.50,660.27 C400.68,664.17 389.19,672.00 388.29,672.00 C387.83,672.00 385.77,673.39 383.70,675.10 C381.63,676.80 377.60,679.05 374.73,680.10 ZM 377.50 665.04 C380.80,662.88 385.30,659.76 387.50,658.11 C389.70,656.46 394.11,653.66 397.30,651.89 C400.49,650.12 405.44,646.27 408.30,643.35 C411.16,640.42 414.12,638.02 414.87,638.01 C415.62,638.01 420.05,634.17 424.70,629.50 C429.35,624.83 433.46,621.00 433.84,621.00 C434.21,621.00 436.08,618.94 438.00,616.42 C439.93,613.90 443.00,610.18 444.84,608.17 C446.67,606.15 449.56,602.47 451.26,600.00 C452.96,597.53 455.62,594.02 457.17,592.22 C458.73,590.41 460.00,588.44 460.00,587.85 C460.00,587.26 462.54,581.63 465.64,575.35 C468.74,569.08 471.04,563.70 470.75,563.42 C470.47,563.13 470.68,561.23 471.23,559.20 C471.77,557.16 472.35,551.04 472.52,545.58 C472.76,537.34 472.34,533.81 470.03,524.77 C468.31,518.06 466.43,513.02 465.12,511.63 C463.95,510.39 463.00,508.72 463.00,507.93 C463.00,506.58 459.44,503.08 449.38,494.51 C447.11,492.58 444.39,491.00 443.33,491.00 C442.27,491.00 440.97,490.61 440.45,490.13 C438.20,488.07 424.39,484.81 420.00,485.30 C398.00,487.78 388.92,491.75 376.95,504.13 C373.83,507.36 370.58,510.00 369.72,510.00 C368.87,510.00 366.76,508.22 365.04,506.05 C361.15,501.14 348.75,492.00 345.97,492.00 C344.84,492.00 342.70,491.10 341.21,490.00 C339.72,488.90 335.58,487.40 332.00,486.68 C323.21,484.89 304.86,486.58 300.46,489.59 C298.83,490.70 295.60,492.43 293.28,493.44 C285.25,496.93 273.26,511.44 270.91,520.50 C270.49,522.15 269.45,525.30 268.61,527.50 C267.56,530.25 267.07,535.27 267.04,543.57 C267.01,553.65 267.41,556.96 269.45,563.57 C273.29,575.98 274.29,578.31 277.59,582.54 C279.29,584.72 281.76,588.75 283.09,591.50 C284.42,594.25 287.32,598.76 289.54,601.53 C299.78,614.28 307.24,623.00 307.92,623.00 C308.33,623.00 313.13,627.30 318.58,632.57 C324.04,637.83 330.08,643.10 332.00,644.28 C333.92,645.46 336.69,647.60 338.15,649.03 C343.74,654.55 367.08,669.02 370.33,668.99 C370.97,668.99 374.20,667.21 377.50,665.04 Z" fill="rgb(108,46,53)"/>
<path d="M 377.62 689.88 C373.29,692.15 369.68,694.00 369.60,694.00 C369.52,694.00 366.00,691.97 361.77,689.50 C357.54,687.03 353.86,685.00 353.59,685.00 C352.90,685.00 346.62,680.69 342.73,677.55 C335.42,671.65 328.26,666.22 325.47,664.47 C311.30,655.59 273.04,617.06 266.14,604.72 C264.84,602.40 263.16,600.15 262.42,599.72 C261.67,599.29 259.40,595.91 257.36,592.22 C255.32,588.52 252.79,584.24 251.72,582.70 C248.87,578.56 246.14,570.82 243.37,559.00 C242.01,553.22 240.42,546.86 239.82,544.85 C239.23,542.84 239.03,539.24 239.39,536.85 C239.74,534.46 240.06,529.35 240.09,525.50 C240.12,521.65 240.97,515.80 241.98,512.50 C242.99,509.20 244.53,504.09 245.41,501.14 C246.30,498.14 248.70,493.74 250.86,491.14 C252.98,488.59 255.47,485.04 256.39,483.25 C257.30,481.46 258.48,480.00 259.00,480.00 C259.52,480.00 261.90,478.19 264.29,475.98 C269.21,471.43 283.00,464.00 286.54,464.00 C287.83,464.00 289.12,463.61 289.41,463.14 C291.13,460.36 315.25,460.28 325.50,463.02 C341.49,467.30 349.88,472.35 362.13,485.09 C369.78,493.04 372.18,494.11 373.46,490.16 C373.95,488.67 382.14,480.08 387.60,475.32 C390.75,472.58 397.44,469.10 406.96,465.24 C414.93,462.02 416.44,461.75 429.55,461.27 C442.65,460.80 444.19,460.94 452.13,463.36 C456.82,464.79 461.48,466.87 462.48,467.98 C463.49,469.09 464.82,470.00 465.45,470.00 C466.79,470.00 481.76,480.88 484.17,483.61 C487.77,487.69 495.00,502.00 495.00,505.05 C495.00,506.09 495.87,508.64 496.94,510.72 C499.40,515.50 501.41,533.12 500.54,542.20 C499.93,548.47 497.53,558.30 495.22,564.00 C494.66,565.38 493.62,568.53 492.90,571.00 C492.18,573.47 489.43,579.51 486.79,584.40 C484.16,589.30 482.00,593.49 482.00,593.72 C482.00,593.95 480.20,596.28 478.00,598.88 C475.80,601.49 474.00,604.05 474.00,604.56 C474.00,605.08 472.14,607.53 469.87,610.00 C467.59,612.48 464.05,616.75 462.00,619.50 C456.95,626.27 430.68,652.44 425.04,656.31 C422.54,658.02 419.83,660.17 419.00,661.09 C417.37,662.90 404.21,672.69 396.99,677.47 C394.52,679.10 390.92,681.63 389.00,683.10 C387.08,684.56 381.95,687.61 377.62,689.88 ZM 374.73 680.10 C377.60,679.05 381.63,676.80 383.70,675.10 C385.77,673.39 387.83,672.00 388.29,672.00 C389.19,672.00 400.68,664.17 405.50,660.27 C407.15,658.93 409.76,656.86 411.29,655.67 C412.83,654.48 416.88,650.88 420.29,647.67 C423.71,644.47 427.62,641.25 429.00,640.51 C431.32,639.27 438.86,631.38 452.10,616.37 C463.69,603.23 467.00,599.09 467.00,597.75 C467.00,596.99 469.47,592.80 472.48,588.43 C475.50,584.07 477.97,580.01 477.98,579.40 C477.99,578.80 478.90,577.50 480.00,576.50 C481.18,575.44 482.00,573.42 482.00,571.60 C482.01,569.89 483.12,565.35 484.48,561.50 C485.84,557.65 486.97,553.01 486.98,551.18 C486.99,549.36 487.48,546.97 488.07,545.86 C488.82,544.46 488.84,542.44 488.13,539.18 C487.57,536.60 486.61,529.89 486.01,524.25 C484.96,514.53 483.10,507.80 481.14,506.59 C480.66,506.29 479.99,504.69 479.66,503.04 C478.80,498.76 464.74,484.24 459.00,481.71 C456.52,480.62 453.31,478.89 451.85,477.86 C450.39,476.84 448.23,476.00 447.05,476.00 C445.87,476.00 443.48,475.26 441.74,474.36 C439.35,473.13 435.72,472.72 427.04,472.70 C414.92,472.67 413.94,472.88 398.00,478.82 C389.41,482.03 387.82,483.04 381.42,489.46 C377.53,493.35 373.54,497.77 372.56,499.27 C371.57,500.77 370.41,502.00 369.97,502.00 C369.52,502.00 368.18,500.41 366.98,498.46 C363.94,493.55 348.14,480.88 342.32,478.68 C339.67,477.69 335.66,476.04 333.40,475.02 C320.95,469.41 292.63,472.79 283.50,480.98 C282.40,481.97 278.91,484.22 275.75,485.98 C272.59,487.75 270.00,489.51 270.00,489.91 C270.00,490.30 268.75,491.94 267.22,493.56 C261.77,499.33 257.11,507.38 256.70,511.71 C256.48,514.03 255.72,516.63 255.00,517.50 C251.85,521.30 250.78,553.35 253.66,557.84 C254.48,559.12 255.82,562.50 256.62,565.34 C257.43,568.18 258.48,571.40 258.96,572.50 C262.83,581.34 266.95,588.76 272.03,596.00 C275.31,600.67 279.06,606.08 280.38,608.00 C282.55,611.19 290.36,619.93 300.57,630.61 C302.73,632.87 307.24,637.15 310.59,640.11 C313.94,643.07 319.99,648.42 324.02,651.99 C328.06,655.56 333.05,659.61 335.11,660.99 C337.17,662.37 343.36,666.55 348.86,670.27 C354.36,674.00 360.44,677.70 362.36,678.51 C364.29,679.31 366.15,680.43 366.49,680.98 C367.38,682.42 368.81,682.26 374.73,680.10 Z" fill="rgb(128,71,74)"/>
<path d="M 376.17 703.06 C369.75,705.93 365.51,705.41 360.00,701.07 C358.08,699.55 354.92,697.50 353.00,696.51 C351.08,695.52 347.93,693.42 346.02,691.85 C344.11,690.28 342.17,689.00 341.70,689.00 C341.24,689.00 338.42,687.09 335.44,684.75 C332.45,682.41 327.26,678.47 323.91,676.00 C303.78,661.15 275.45,633.77 263.43,617.55 C261.82,615.38 259.43,612.46 258.12,611.05 C256.82,609.65 254.60,606.70 253.19,604.50 C251.78,602.30 249.04,598.03 247.09,595.00 C242.03,587.15 235.64,574.42 233.54,568.00 C232.55,564.97 231.14,560.92 230.40,559.00 C227.90,552.47 226.87,544.54 226.76,531.00 C226.66,517.76 228.69,503.45 230.87,502.07 C231.36,501.76 232.29,498.95 232.94,495.83 C233.58,492.71 234.80,489.58 235.64,488.88 C236.48,488.18 238.06,485.72 239.15,483.40 C240.24,481.09 242.88,477.46 245.01,475.35 C258.95,461.54 261.81,459.22 268.50,456.26 C280.89,450.78 285.63,449.84 301.01,449.84 C319.68,449.84 323.42,450.75 341.00,459.51 C348.39,463.20 353.60,467.42 363.50,477.75 C366.27,480.64 368.98,482.99 369.52,482.97 C370.06,482.96 374.77,478.90 379.98,473.96 C389.61,464.84 402.96,456.10 411.35,453.42 C413.63,452.69 417.41,451.40 419.74,450.56 C425.66,448.41 452.16,449.00 456.77,451.38 C458.49,452.27 460.63,453.00 461.52,453.00 C464.80,453.00 478.14,459.29 479.61,461.52 C480.43,462.78 482.20,464.08 483.53,464.42 C488.14,465.57 500.18,478.96 502.95,486.00 C503.70,487.92 505.15,490.43 506.16,491.56 C507.17,492.70 508.00,494.58 508.00,495.73 C508.00,496.89 508.90,499.93 510.00,502.50 C511.10,505.07 512.00,508.84 512.00,510.88 C512.00,512.93 512.51,515.11 513.13,515.73 C513.82,516.42 513.97,517.93 513.50,519.68 C513.09,521.23 512.84,527.77 512.95,534.21 C513.10,543.44 512.72,547.35 511.13,552.71 C510.03,556.44 508.40,562.36 507.52,565.86 C506.65,569.36 504.86,573.64 503.56,575.36 C502.25,577.09 500.03,581.35 498.63,584.84 C497.22,588.33 494.47,592.95 492.53,595.10 C490.59,597.25 488.99,599.57 488.98,600.25 C488.94,603.70 467.91,628.37 448.16,648.16 C447.42,648.90 444.23,652.09 441.07,655.25 C437.90,658.41 434.56,661.00 433.63,661.00 C432.70,661.00 431.71,661.60 431.43,662.33 C430.91,663.68 417.45,674.63 411.00,678.95 C409.08,680.24 406.38,682.38 405.00,683.69 C403.62,685.01 399.80,687.86 396.50,690.02 C393.20,692.18 388.25,695.56 385.50,697.54 C382.75,699.51 378.55,702.00 376.17,703.06 ZM 377.62 689.88 C381.95,687.61 387.08,684.56 389.00,683.10 C390.92,681.63 394.52,679.10 396.99,677.47 C404.21,672.69 417.37,662.90 419.00,661.09 C419.83,660.17 422.54,658.02 425.04,656.31 C430.68,652.44 456.95,626.27 462.00,619.50 C464.05,616.75 467.59,612.48 469.87,610.00 C472.14,607.53 474.00,605.08 474.00,604.56 C474.00,604.05 475.80,601.49 478.00,598.88 C480.20,596.28 482.00,593.95 482.00,593.72 C482.00,593.49 484.16,589.30 486.79,584.40 C489.43,579.51 492.18,573.47 492.90,571.00 C493.62,568.53 494.66,565.38 495.22,564.00 C497.53,558.30 499.93,548.47 500.54,542.20 C501.41,533.12 499.40,515.50 496.94,510.72 C495.87,508.64 495.00,506.09 495.00,505.05 C495.00,502.00 487.77,487.69 484.17,483.61 C481.76,480.88 466.79,470.00 465.45,470.00 C464.82,470.00 463.49,469.09 462.48,467.98 C461.48,466.87 456.82,464.79 452.13,463.36 C444.19,460.94 442.65,460.80 429.55,461.27 C416.44,461.75 414.93,462.02 406.96,465.24 C397.44,469.10 390.75,472.58 387.60,475.32 C382.14,480.08 373.95,488.67 373.46,490.16 C372.18,494.11 369.78,493.04 362.13,485.09 C349.88,472.35 341.49,467.30 325.50,463.02 C315.25,460.28 291.13,460.36 289.41,463.14 C289.12,463.61 287.83,464.00 286.54,464.00 C283.00,464.00 269.21,471.43 264.29,475.98 C261.90,478.19 259.52,480.00 259.00,480.00 C258.48,480.00 257.30,481.46 256.39,483.25 C255.47,485.04 252.98,488.59 250.86,491.14 C248.70,493.74 246.30,498.14 245.41,501.14 C244.53,504.09 242.99,509.20 241.98,512.50 C240.97,515.80 240.12,521.65 240.09,525.50 C240.06,529.35 239.74,534.46 239.39,536.85 C239.03,539.24 239.23,542.84 239.82,544.85 C240.42,546.86 242.01,553.22 243.37,559.00 C246.14,570.82 248.87,578.56 251.72,582.70 C252.79,584.24 255.32,588.52 257.36,592.22 C259.40,595.91 261.67,599.29 262.42,599.72 C263.16,600.15 264.84,602.40 266.14,604.72 C273.04,617.06 311.30,655.59 325.47,664.47 C328.26,666.22 335.42,671.65 342.73,677.55 C346.62,680.69 352.90,685.00 353.59,685.00 C353.86,685.00 357.54,687.03 361.77,689.50 C366.00,691.97 369.52,694.00 369.60,694.00 C369.68,694.00 373.29,692.15 377.62,689.88 Z" fill="rgb(147,100,98)"/>
<path d="M 376.47 715.30 C373.16,717.47 369.00,719.01 369.00,718.06 C369.00,717.56 367.54,716.84 365.75,716.45 C363.96,716.05 360.93,714.89 359.01,713.87 C357.10,712.84 355.03,712.00 354.43,712.00 C353.82,712.00 351.90,710.44 350.16,708.52 C348.42,706.61 345.53,704.30 343.75,703.39 C341.96,702.47 338.81,700.21 336.75,698.36 C334.68,696.51 332.57,695.00 332.04,695.00 C330.61,695.00 323.50,689.98 323.50,688.97 C323.50,687.52 319.69,685.18 318.24,685.74 C317.44,686.04 314.01,683.13 309.86,678.63 C306.00,674.43 302.31,670.99 301.67,670.97 C301.02,670.95 296.45,667.31 291.50,662.88 C286.55,658.45 281.49,654.14 280.25,653.30 C279.01,652.46 278.00,651.20 278.00,650.50 C278.00,649.81 276.34,647.97 274.31,646.43 C269.24,642.56 265.30,638.18 263.00,633.86 C261.86,631.70 259.02,628.95 256.06,627.13 C250.92,623.97 246.00,617.57 246.00,614.06 C246.00,612.96 245.11,611.59 244.01,611.01 C242.92,610.42 241.75,608.87 241.42,607.55 C241.09,606.24 239.29,603.76 237.41,602.06 C235.37,600.20 234.00,598.00 234.00,596.59 C234.00,595.18 233.00,593.57 231.50,592.59 C230.12,591.69 229.00,590.38 229.00,589.67 C229.00,588.97 227.88,586.87 226.51,585.02 C225.14,583.16 223.73,580.04 223.38,578.07 C223.03,576.11 222.43,574.05 222.05,573.50 C221.25,572.33 219.44,566.41 217.93,560.00 C217.35,557.53 216.41,553.70 215.85,551.50 C215.29,549.30 214.84,546.38 214.85,545.00 C214.87,541.01 212.04,532.23 210.55,531.66 C209.40,531.22 209.40,530.54 210.55,527.32 C211.30,525.22 211.93,520.96 211.96,517.86 C211.98,514.76 212.66,510.96 213.47,509.40 C214.27,507.85 214.67,505.55 214.36,504.30 C214.02,502.96 214.61,500.44 215.79,498.18 C218.29,493.39 220.37,483.62 219.57,480.44 C219.13,478.66 219.52,477.70 221.06,476.77 C222.21,476.07 223.74,474.09 224.47,472.37 C225.59,469.73 226.21,469.32 228.45,469.75 C230.92,470.22 231.05,470.06 230.40,467.48 C229.94,465.64 230.06,464.92 230.76,465.35 C231.34,465.71 232.26,464.70 232.82,463.08 C233.38,461.47 234.89,459.60 236.17,458.92 C237.45,458.24 239.09,456.85 239.81,455.84 C240.53,454.83 243.09,453.10 245.51,452.00 C247.93,450.89 250.27,449.34 250.72,448.54 C251.17,447.73 253.10,446.87 255.02,446.62 C259.67,446.01 264.76,443.32 265.46,441.12 C266.15,438.94 272.58,437.22 283.00,436.43 C287.12,436.12 290.91,435.47 291.40,434.98 C291.93,434.46 293.18,434.58 294.40,435.27 C295.56,435.91 300.55,436.49 305.50,436.55 C315.39,436.68 322.39,438.28 325.56,441.13 C326.69,442.15 329.74,443.39 332.34,443.87 C334.94,444.36 337.84,445.42 338.79,446.23 C339.73,447.03 341.29,447.98 342.25,448.32 C343.21,448.66 344.00,449.51 344.01,450.22 C344.01,451.36 345.78,452.73 352.34,456.66 C355.46,458.53 363.95,466.41 364.02,467.50 C364.05,468.05 365.40,470.04 367.01,471.93 C369.93,475.34 369.95,475.35 372.08,473.43 C373.25,472.37 375.29,469.65 376.62,467.39 C379.62,462.27 388.29,454.25 394.11,451.21 C396.53,449.95 401.65,446.92 405.50,444.48 C409.35,442.05 413.42,440.04 414.55,440.02 C415.68,440.01 417.08,439.52 417.67,438.93 C418.26,438.34 423.41,437.69 429.12,437.48 C434.83,437.27 441.15,436.68 443.17,436.17 C445.57,435.57 447.20,435.60 447.87,436.27 C448.56,436.96 450.58,436.95 454.19,436.22 C457.43,435.57 459.87,435.52 460.45,436.08 C460.97,436.59 462.63,437.00 464.14,437.00 C465.70,437.00 467.46,437.82 468.22,438.90 C469.59,440.86 481.04,446.00 484.03,446.00 C485.87,446.00 490.08,449.54 491.72,452.46 C492.39,453.67 493.81,454.28 495.80,454.22 C497.62,454.17 499.07,454.73 499.41,455.61 C499.72,456.43 501.60,457.77 503.59,458.60 C505.59,459.44 507.45,460.99 507.73,462.06 C508.00,463.13 508.77,464.00 509.43,464.00 C510.09,464.00 511.27,465.65 512.06,467.68 C512.85,469.70 514.02,472.28 514.66,473.43 C517.31,478.14 521.00,485.94 521.00,486.82 C521.00,487.33 521.63,488.28 522.40,488.91 C523.16,489.55 523.57,490.93 523.30,491.98 C523.02,493.03 523.58,495.37 524.54,497.19 C527.27,502.38 530.13,521.00 528.20,521.00 C527.15,521.00 527.43,532.61 528.56,536.20 C528.86,537.15 528.57,538.94 527.90,540.18 C527.24,541.42 526.56,545.54 526.40,549.35 C526.17,554.58 525.61,556.78 524.11,558.38 C521.74,560.92 520.00,565.23 520.00,568.57 C520.00,569.91 519.10,572.69 518.00,574.74 C516.90,576.79 516.00,579.01 516.00,579.67 C516.00,580.33 515.12,581.14 514.05,581.48 C512.40,582.01 511.20,583.91 510.42,587.25 C510.33,587.66 510.14,588.22 510.00,588.50 C509.86,588.78 509.69,589.34 509.62,589.75 C509.55,590.16 508.32,592.08 506.89,594.00 C505.47,595.92 504.00,598.33 503.64,599.35 C502.91,601.41 500.26,605.05 495.00,611.20 C493.08,613.45 491.63,616.04 491.78,616.96 C491.94,617.87 489.55,621.26 486.46,624.50 C483.38,627.73 480.25,631.54 479.51,632.97 C478.78,634.40 476.98,636.21 475.52,636.99 C474.06,637.77 471.27,640.59 469.31,643.25 C467.36,645.92 464.13,648.86 462.14,649.80 C460.15,650.74 457.92,652.77 457.18,654.32 C456.44,655.86 455.08,657.40 454.16,657.73 C453.25,658.06 450.88,659.77 448.89,661.54 C446.91,663.30 444.88,664.91 444.39,665.12 C443.90,665.33 442.26,667.30 440.75,669.49 C439.23,671.69 436.31,674.42 434.25,675.56 C432.19,676.71 429.60,679.04 428.50,680.73 C427.18,682.78 425.37,684.04 423.17,684.47 C420.89,684.92 419.31,686.07 418.17,688.11 C417.25,689.75 414.14,692.45 411.26,694.11 C408.38,695.77 405.68,697.68 405.26,698.34 C404.23,699.98 399.37,703.00 397.78,703.00 C397.07,703.00 393.16,705.47 389.09,708.50 C385.02,711.53 380.96,714.00 380.07,714.00 C379.17,714.00 377.56,714.58 376.47,715.30 ZM 376.17 703.06 C378.55,702.00 382.75,699.51 385.50,697.54 C388.25,695.56 393.20,692.18 396.50,690.02 C399.80,687.86 403.62,685.01 405.00,683.69 C406.38,682.38 409.08,680.24 411.00,678.95 C417.45,674.63 430.91,663.68 431.43,662.33 C431.71,661.60 432.70,661.00 433.63,661.00 C434.56,661.00 437.90,658.41 441.07,655.25 C444.23,652.09 447.42,648.90 448.16,648.16 C467.91,628.37 488.94,603.70 488.98,600.25 C488.99,599.57 490.59,597.25 492.53,595.10 C494.47,592.95 497.22,588.33 498.63,584.84 C500.03,581.35 502.25,577.09 503.56,575.36 C504.86,573.64 506.65,569.36 507.52,565.86 C508.40,562.36 510.03,556.44 511.13,552.71 C512.72,547.35 513.10,543.44 512.95,534.21 C512.84,527.77 513.09,521.23 513.50,519.68 C513.97,517.93 513.82,516.42 513.13,515.73 C512.51,515.11 512.00,512.93 512.00,510.88 C512.00,508.84 511.10,505.07 510.00,502.50 C508.90,499.93 508.00,496.89 508.00,495.73 C508.00,494.58 507.17,492.70 506.16,491.56 C505.15,490.43 503.70,487.92 502.95,486.00 C500.18,478.96 488.14,465.57 483.53,464.42 C482.20,464.08 480.43,462.78 479.61,461.52 C478.14,459.29 464.80,453.00 461.52,453.00 C460.63,453.00 458.49,452.27 456.77,451.38 C452.16,449.00 425.66,448.41 419.74,450.56 C417.41,451.40 413.63,452.69 411.35,453.42 C402.96,456.10 389.61,464.84 379.98,473.96 C374.77,478.90 370.06,482.96 369.52,482.97 C368.98,482.99 366.27,480.64 363.50,477.75 C353.60,467.42 348.39,463.20 341.00,459.51 C323.42,450.75 319.68,449.84 301.01,449.84 C285.63,449.84 280.89,450.78 268.50,456.26 C261.81,459.22 258.95,461.54 245.01,475.35 C242.88,477.46 240.24,481.09 239.15,483.40 C238.06,485.72 236.48,488.18 235.64,488.88 C234.80,489.58 233.58,492.71 232.94,495.83 C232.29,498.95 231.36,501.76 230.87,502.07 C228.69,503.45 226.66,517.76 226.76,531.00 C226.87,544.54 227.90,552.47 230.40,559.00 C231.14,560.92 232.55,564.97 233.54,568.00 C235.64,574.42 242.03,587.15 247.09,595.00 C249.04,598.03 251.78,602.30 253.19,604.50 C254.60,606.70 256.82,609.65 258.12,611.05 C259.43,612.46 261.82,615.38 263.43,617.55 C275.45,633.77 303.78,661.15 323.91,676.00 C327.26,678.47 332.45,682.41 335.44,684.75 C338.42,687.09 341.24,689.00 341.70,689.00 C342.17,689.00 344.11,690.28 346.02,691.85 C347.93,693.42 351.08,695.52 353.00,696.51 C354.92,697.50 358.08,699.55 360.00,701.07 C365.51,705.41 369.75,705.93 376.17,703.06 ZM 0.00 0.00 L 736.00 0.00 L 736.00 40.00 L 0.00 40.00 ZM 62.85 0.00 C58.75,0.00 58.72,0.03 60.50,2.00 C62.57,4.29 64.08,4.52 65.80,2.80 C67.88,0.72 67.13,0.00 62.85,0.00 Z" fill="rgb(153,131,124)"/>
<path d="M 0.00 1133.00 L 0.00 40.00 L 736.00 40.00 L 736.00 1133.00 ZM 376.47 715.30 C377.56,714.58 379.17,714.00 380.07,714.00 C380.96,714.00 385.02,711.53 389.09,708.50 C393.16,705.47 397.07,703.00 397.78,703.00 C399.37,703.00 404.23,699.98 405.26,698.34 C405.68,697.68 408.38,695.77 411.26,694.11 C414.14,692.45 417.25,689.75 418.17,688.11 C419.31,686.07 420.89,684.92 423.17,684.47 C425.37,684.04 427.18,682.78 428.50,680.73 C429.60,679.04 432.19,676.71 434.25,675.56 C436.31,674.42 439.23,671.69 440.75,669.49 C442.26,667.30 443.90,665.33 444.39,665.12 C444.88,664.91 446.91,663.30 448.89,661.54 C450.88,659.77 453.25,658.06 454.16,657.73 C455.08,657.40 456.44,655.86 457.18,654.32 C457.92,652.77 460.15,650.74 462.14,649.80 C464.13,648.86 467.36,645.92 469.31,643.25 C471.27,640.59 474.06,637.77 475.52,636.99 C476.98,636.21 478.78,634.40 479.51,632.97 C480.25,631.54 483.38,627.73 486.46,624.50 C489.55,621.26 491.94,617.87 491.78,616.96 C491.63,616.04 493.08,613.45 495.00,611.20 C500.26,605.05 502.91,601.41 503.64,599.35 C504.00,598.33 505.47,595.92 506.89,594.00 C508.32,592.08 509.55,590.16 509.62,589.75 C509.69,589.34 509.86,588.78 510.00,588.50 C510.14,588.22 510.33,587.66 510.42,587.25 C511.20,583.91 512.40,582.01 514.05,581.48 C515.12,581.14 516.00,580.33 516.00,579.67 C516.00,579.01 516.90,576.79 518.00,574.74 C519.10,572.69 520.00,569.91 520.00,568.57 C520.00,565.23 521.74,560.92 524.11,558.38 C525.61,556.78 526.17,554.58 526.40,549.35 C526.56,545.54 527.24,541.42 527.90,540.18 C528.57,538.94 528.86,537.15 528.56,536.20 C527.43,532.61 527.15,521.00 528.20,521.00 C530.13,521.00 527.27,502.38 524.54,497.19 C523.58,495.37 523.02,493.03 523.30,491.98 C523.57,490.93 523.16,489.55 522.40,488.91 C521.63,488.28 521.00,487.33 521.00,486.82 C521.00,485.94 517.31,478.14 514.66,473.43 C514.02,472.28 512.85,469.70 512.06,467.68 C511.27,465.65 510.09,464.00 509.43,464.00 C508.77,464.00 508.00,463.13 507.73,462.06 C507.45,460.99 505.59,459.44 503.59,458.60 C501.60,457.77 499.72,456.43 499.41,455.61 C499.07,454.73 497.62,454.17 495.80,454.22 C493.81,454.28 492.39,453.67 491.72,452.46 C490.08,449.54 485.87,446.00 484.03,446.00 C481.04,446.00 469.59,440.86 468.22,438.90 C467.46,437.82 465.70,437.00 464.14,437.00 C462.63,437.00 460.97,436.59 460.45,436.08 C459.87,435.52 457.43,435.57 454.19,436.22 C450.58,436.95 448.56,436.96 447.87,436.27 C447.20,435.60 445.57,435.57 443.17,436.17 C441.15,436.68 434.83,437.27 429.12,437.48 C423.41,437.69 418.26,438.34 417.67,438.93 C417.08,439.52 415.68,440.01 414.55,440.02 C413.42,440.04 409.35,442.05 405.50,444.48 C401.65,446.92 396.53,449.95 394.11,451.21 C388.29,454.25 379.62,462.27 376.62,467.39 C375.29,469.65 373.25,472.37 372.08,473.43 C369.95,475.35 369.93,475.34 367.01,471.93 C365.40,470.04 364.05,468.05 364.02,467.50 C363.95,466.41 355.46,458.53 352.34,456.66 C345.78,452.73 344.01,451.36 344.01,450.22 C344.00,449.51 343.21,448.66 342.25,448.32 C341.29,447.98 339.73,447.03 338.79,446.23 C337.84,445.42 334.94,444.36 332.34,443.87 C329.74,443.39 326.69,442.15 325.56,441.13 C322.39,438.28 315.39,436.68 305.50,436.55 C300.55,436.49 295.56,435.91 294.40,435.27 C293.18,434.58 291.93,434.46 291.40,434.98 C290.91,435.47 287.12,436.12 283.00,436.43 C272.58,437.22 266.15,438.94 265.46,441.12 C264.76,443.32 259.67,446.01 255.02,446.62 C253.10,446.87 251.17,447.73 250.72,448.54 C250.27,449.34 247.93,450.89 245.51,452.00 C243.09,453.10 240.53,454.83 239.81,455.84 C239.09,456.85 237.45,458.24 236.17,458.92 C234.89,459.60 233.38,461.47 232.82,463.08 C232.26,464.70 231.34,465.71 230.76,465.35 C230.06,464.92 229.94,465.64 230.40,467.48 C231.05,470.06 230.92,470.22 228.45,469.75 C226.21,469.32 225.59,469.73 224.47,472.37 C223.74,474.09 222.21,476.07 221.06,476.77 C219.52,477.70 219.13,478.66 219.57,480.44 C220.37,483.62 218.29,493.39 215.79,498.18 C214.61,500.44 214.02,502.96 214.36,504.30 C214.67,505.55 214.27,507.85 213.47,509.40 C212.66,510.96 211.98,514.76 211.96,517.86 C211.93,520.96 211.30,525.22 210.55,527.32 C209.40,530.54 209.40,531.22 210.55,531.66 C212.04,532.23 214.87,541.01 214.85,545.00 C214.84,546.38 215.29,549.30 215.85,551.50 C216.41,553.70 217.35,557.53 217.93,560.00 C219.44,566.41 221.25,572.33 222.05,573.50 C222.43,574.05 223.03,576.11 223.38,578.07 C223.73,580.04 225.14,583.16 226.51,585.02 C227.88,586.87 229.00,588.97 229.00,589.67 C229.00,590.38 230.12,591.69 231.50,592.59 C233.00,593.57 234.00,595.18 234.00,596.59 C234.00,598.00 235.37,600.20 237.41,602.06 C239.29,603.76 241.09,606.24 241.42,607.55 C241.75,608.87 242.92,610.42 244.01,611.01 C245.11,611.59 246.00,612.96 246.00,614.06 C246.00,617.57 250.92,623.97 256.06,627.13 C259.02,628.95 261.86,631.70 263.00,633.86 C265.30,638.18 269.24,642.56 274.31,646.43 C276.34,647.97 278.00,649.81 278.00,650.50 C278.00,651.20 279.01,652.46 280.25,653.30 C281.49,654.14 286.55,658.45 291.50,662.88 C296.45,667.31 301.02,670.95 301.67,670.97 C302.31,670.99 306.00,674.43 309.86,678.63 C314.01,683.13 317.44,686.04 318.24,685.74 C319.69,685.18 323.50,687.52 323.50,688.97 C323.50,689.98 330.61,695.00 332.04,695.00 C332.57,695.00 334.68,696.51 336.75,698.36 C338.81,700.21 341.96,702.47 343.75,703.39 C345.53,704.30 348.42,706.61 350.16,708.52 C351.90,710.44 353.82,712.00 354.43,712.00 C355.03,712.00 357.10,712.84 359.01,713.87 C360.93,714.89 363.96,716.05 365.75,716.45 C367.54,716.84 369.00,717.56 369.00,718.06 C369.00,719.01 373.16,717.47 376.47,715.30 ZM 565.50 1130.72 L 561.50 1132.91 L 600.50 1132.91 L 596.50 1130.71 C593.02,1128.79 591.00,1128.50 581.00,1128.52 C571.07,1128.53 568.95,1128.83 565.50,1130.72 ZM 664.00 1130.74 L 659.50 1132.83 L 678.81 1132.92 C689.43,1132.96 697.88,1132.62 697.59,1132.15 C697.30,1131.68 694.54,1130.50 691.45,1129.53 C683.92,1127.16 670.41,1127.76 664.00,1130.74 Z" fill="rgb(170,149,140)"/>
<path d="M 565.50 1130.72 C568.95,1128.83 571.07,1128.53 581.00,1128.52 C591.00,1128.50 593.02,1128.79 596.50,1130.71 L 600.50 1132.91 L 581.00 1132.91 L 561.50 1132.91 L 565.50 1130.72 ZM 664.00 1130.74 C670.41,1127.76 683.92,1127.16 691.45,1129.53 C694.54,1130.50 697.30,1131.68 697.59,1132.15 C697.88,1132.62 689.43,1132.96 678.81,1132.92 L 659.50 1132.83 L 664.00 1130.74 ZM 60.50 2.00 C58.72,0.03 58.75,0.00 62.85,0.00 C67.13,-0.00 67.88,0.72 65.80,2.80 C64.08,4.52 62.57,4.29 60.50,2.00 Z" fill="rgb(250,243,237)"/>
</g>
</svg>